<svg width="25" height="24" viewBox="0 0 25 24" fill="none" xmlns="http://www.w3.org/2000/svg">
<path d="M9.24757 22H7.99976C7.87438 22 7.75101 21.9685 7.64094 21.9085C7.53086 21.8484 7.43759 21.7618 7.36965 21.6564C7.30172 21.551 7.26128 21.4303 7.25205 21.3052C7.24281 21.1802 7.26507 21.0548 7.31679 20.9406L10.3384 14.2727L5.80132 14.1719L4.14664 16.1767C3.83117 16.5733 3.57945 16.75 2.93726 16.75H2.09726C1.96426 16.7543 1.8322 16.7264 1.71225 16.6688C1.5923 16.6112 1.488 16.5255 1.4082 16.4191C1.29664 16.2686 1.18695 16.0136 1.29382 15.6498L2.22289 12.3217C2.22992 12.2969 2.23836 12.272 2.24773 12.2477C2.2482 12.2453 2.2482 12.2429 2.24773 12.2406C2.23805 12.2163 2.22976 12.1914 2.22289 12.1661L1.29289 8.81687C1.19211 8.46016 1.30226 8.21078 1.41289 8.06406C1.48717 7.96549 1.58355 7.88573 1.69427 7.83118C1.80499 7.77664 1.92697 7.74883 2.05039 7.75H2.93726C3.41679 7.75 3.88226 7.96516 4.15601 8.3125L5.77648 10.2836L10.3384 10.2161L7.31773 3.55984C7.26594 3.44568 7.24359 3.32036 7.25273 3.19533C7.26187 3.0703 7.3022 2.94956 7.37004 2.84414C7.43788 2.73872 7.53107 2.65198 7.64107 2.59186C7.75108 2.53175 7.8744 2.50016 7.99976 2.5H9.26117C9.43715 2.50354 9.61007 2.54667 9.7671 2.6262C9.92412 2.70572 10.0612 2.8196 10.1682 2.95937L16.0299 10.0844L18.7379 10.0131C18.9362 10.0023 19.4855 9.99859 19.6126 9.99859C22.2029 10 23.7498 10.8409 23.7498 12.25C23.7498 12.6934 23.5726 13.5156 22.3871 14.0387C21.6873 14.3481 20.7535 14.5047 19.6116 14.5047C19.486 14.5047 18.938 14.5009 18.7369 14.4902L16.0294 14.418L10.1532 21.543C10.0461 21.6821 9.90915 21.7954 9.7524 21.8746C9.59565 21.9537 9.42312 21.9965 9.24757 22Z" fill="black" fill-opacity="0.8"/>
</svg>
